<svg width="1307" height="1640" viewBox="0 0 1307 1640" fill="none" xmlns="http://www.w3.org/2000/svg">
<g clip-path="url(#clip0_18_987)">
<path d="M800 622H769.023C785.074 599.44 801.019 577.049 816.859 554.825C906.217 429.458 991.577 309.42 1072.94 194.713L1084 179.119V160V120V60H1024H564C548.405 60 531.525 63.2387 515.584 72.2055C499.438 81.2878 487.599 94.3739 479.551 108.861L478.917 110.001L478.334 111.167C469.369 129.097 453.057 160.432 429.148 205.596C405.094 249.698 377.74 300.405 347.093 357.701C316.493 414.909 284.557 474.124 251.283 535.349L251.17 535.557L251.059 535.765C219.061 595.761 189.048 652.451 161.022 705.831C133.022 757.835 110.255 800.688 92.767 834.319L145.223 861.596L92.767 834.319C83.9637 851.248 76.9791 865.18 72.0795 875.733C69.6691 880.925 67.3849 886.106 65.5819 890.822C64.6928 893.147 63.6087 896.166 62.6677 899.495L62.659 899.526C62.0517 901.675 60 908.934 60 918V1234C60 1250.58 64.1861 1274.04 83.0736 1292.93C101.961 1311.81 125.418 1316 142 1316H624V1498C624 1514.58 628.186 1538.04 647.074 1556.93C665.961 1575.81 689.418 1580 706 1580H1084H1144V1520V1316H1188H1248V1256V926C1248 909.418 1243.81 885.961 1224.93 867.074C1206.04 848.186 1182.58 844 1166 844H1144V704C1144 687.418 1139.81 663.961 1120.93 645.074C1102.04 626.186 1078.58 622 1062 622H800ZM601.378 858.345C649.985 789.622 697.709 722.312 744.55 656.415L742.132 666.088C742.053 666.305 741.951 666.585 741.82 666.933C741.167 668.674 740.132 671.284 738.615 674.923C735.594 682.174 731.187 692.261 725.285 705.378L724.985 706.044L724.702 706.717C713.903 732.363 701.816 761.91 688.45 795.321C680.601 814.161 673.201 832.107 666.252 849.156C643.589 851.432 621.95 854.48 601.378 858.345Z" fill="#FBFF45" stroke="black" stroke-width="120"/>
</g>
<defs>
<clipPath id="clip0_18_987">
<rect width="1307" height="1640" fill="white"/>
</clipPath>
</defs>
</svg>
